<svg xmlns="http://www.w3.org/2000/svg" viewBox="0 0 24 28" fill="none">
  <path d="M12.0783366,16.5158866 C10.5218164,16.5158866 9.12444084,15.8439523 8.15357279,14.7763072 C7.29789101,13.8321926 6.77563867,12.5797677 6.77563867,11.2061348 C6.77563867,8.27417517 9.15016205,5.89853347 12.0783366,5.89853347 C13.9921148,5.89853347 15.6677784,6.91232756 16.5967527,8.43297567 C16.5988173,8.43504025 16.6007098,8.4370188 16.6007098,8.43899735 C17.0950043,9.24607551 17.3789699,10.1922546 17.3789699,11.2061348 C17.3789699,14.1381804 15.0065971,16.5158866 12.0783366,16.5158866 M23.7356351,22.237952 C22.3258721,20.6599259 21.083684,18.8392257 21.0804151,12.1484428 C21.0868669,11.9942016 21.0874691,11.9889541 21.0874691,11.8329064 C21.0874691,9.10095284 20.1049878,6.624835 18.5126816,4.82030734 C18.6327712,4.665636 18.7563018,4.48214658 18.8784561,4.27749523 C18.8941985,4.25194607 18.9081344,4.22639692 18.9217262,4.20093378 C19.0658166,3.95705544 19.2080144,3.68573541 19.3403195,3.39695249 C19.470474,3.11195463 19.5889292,2.81508544 19.6896634,2.52036686 C19.7014487,2.4830324 19.7152986,2.44569793 19.7251053,2.40836347 C19.7864405,2.21773406 19.8396034,2.02701861 19.8830456,1.84421739 C20.084342,0.977524528 20.0467495,0.234620355 19.545659,0.024205393 C19.2611773,-0.0955401617 18.9177691,0.242534572 18.5191334,0.739581853 C18.5052835,0.757388843 18.4895411,0.775109809 18.4738847,0.794723305 C18.4559917,0.816401379 18.4382707,0.83799343 18.4203777,0.86147801 C18.1599827,1.19559564 17.871888,1.58683327 17.5580721,1.94830656 C17.5343294,1.97600632 17.5106728,2.00344801 17.4869301,2.03097572 C17.4732523,2.04680416 17.4593164,2.0622885 17.4454665,2.07820296 C17.1024024,2.46144035 16.7294879,2.80226785 16.3270671,3.00012329 C15.0734378,2.25653093 13.642857,1.83518486 12.1240154,1.83518486 C10.5662909,1.83518486 9.10147241,2.27838105 7.82521878,3.05793149 C7.37316211,2.87366786 6.95749363,2.50187168 6.57821335,2.07820296 C6.56436347,2.0622885 6.55059961,2.04680416 6.53692178,2.03097572 C6.5130931,2.00344801 6.48943647,1.97600632 6.46569382,1.94830656 C6.15179186,1.58683327 5.86378315,1.19559564 5.60330216,0.86147801 C5.58549517,0.83799343 5.56768818,0.816401379 5.54996722,0.794723305 C5.53422481,0.775109809 5.5184824,0.757388843 5.50463251,0.739581853 C5.10591079,0.242534572 4.76250256,-0.0955401617 4.47810687,0.024205393 C3.97701645,0.234620355 3.93933789,0.977524528 4.14080635,1.84421739 C4.1841625,2.02701861 4.23741142,2.21773406 4.29866058,2.40836347 C4.30846733,2.44569793 4.32231721,2.4830324 4.33410251,2.52036686 C4.43475072,2.81508544 4.55320591,3.11195463 4.68353243,3.39695249 C4.81566545,3.68573541 4.95794932,3.95705544 5.10195368,4.20093378 C5.11563151,4.22639692 5.12965344,4.25194607 5.1452238,4.27749523 C5.30471249,4.54460008 5.46626576,4.7755748 5.61999084,4.95347265 C4.09572972,6.74578489 3.16064769,9.16762153 3.16064769,11.8329064 C3.16064769,12.0452139 3.14920649,12.120657 3.16090576,12.3298676 C3.1338942,18.8815495 1.81703719,20.6731736 0.419145478,22.237952 C-0.583035349,23.3596204 0.269635583,25.7155625 2.36156978,24.664434 C6.57821335,22.5454882 7.56103875,26.4778221 12.0722289,26.3467214 C16.5833329,26.2157067 17.4454665,22.5454882 21.7932108,24.664434 C23.8978766,25.6900994 24.7375579,23.3596204 23.7356351,22.237952" fill="#f3f2ed"/>
  <path d="M12.0783366,16.5158866 C10.5218164,16.5158866 9.12444084,15.8439523 8.15357279,14.7763072 C7.29789101,13.8321926 6.77563867,12.5797677 6.77563867,11.2061348 C6.77563867,8.27417517 9.15016205,5.89853347 12.0783366,5.89853347 C13.9921148,5.89853347 15.6677784,6.91232756 16.5967527,8.43297567 C16.5988173,8.43504025 16.6007098,8.4370188 16.6007098,8.43899735 C17.0950043,9.24607551 17.3789699,10.1922546 17.3789699,11.2061348 C17.3789699,14.1381804 15.0065971,16.5158866 12.0783366,16.5158866" fill="#111111"/>
  <path d="M16.9613831,10.4367438 C16.9613831,11.9208316 15.7599704,13.1237927 14.2778611,13.1237927 C12.7957518,13.1237927 11.5942531,11.9208316 11.5942531,10.4367438 C11.5942531,8.95256987 12.7957518,7.74960878 14.2778611,7.74960878 C15.7599704,7.74960878 16.9613831,8.95256987 16.9613831,10.4367438" fill="#f3f2ed"/>
</svg>